<svg width="24" height="20" viewBox="0 0 24 20" fill="none" xmlns="http://www.w3.org/2000/svg">
<path d="M21.3333 9.99996V4.16663H23.6667V11.1666H21.3333M21.3333 15.8333H23.6667V13.5H21.3333M9.66668 11.1666C12.7817 11.1666 19 12.73 19 15.8333V19.3333H0.333344V15.8333C0.333344 12.73 6.55168 11.1666 9.66668 11.1666ZM9.66668 0.666626C10.9044 0.666626 12.0913 1.15829 12.9665 2.03346C13.8417 2.90863 14.3333 4.09562 14.3333 5.33329C14.3333 6.57097 13.8417 7.75795 12.9665 8.63312C12.0913 9.50829 10.9044 9.99996 9.66668 9.99996C8.429 9.99996 7.24202 9.50829 6.36685 8.63312C5.49168 7.75795 5.00001 6.57097 5.00001 5.33329C5.00001 4.09562 5.49168 2.90863 6.36685 2.03346C7.24202 1.15829 8.429 0.666626 9.66668 0.666626ZM9.66668 13.3833C6.20168 13.3833 2.55001 15.0866 2.55001 15.8333V17.1166H16.7833V15.8333C16.7833 15.0866 13.1317 13.3833 9.66668 13.3833ZM9.66668 2.88329C9.0169 2.88329 8.39373 3.14142 7.93427 3.60088C7.4748 4.06034 7.21668 4.68351 7.21668 5.33329C7.21668 5.98307 7.4748 6.60624 7.93427 7.0657C8.39373 7.52517 9.0169 7.78329 9.66668 7.78329C10.3165 7.78329 10.9396 7.52517 11.3991 7.0657C11.8586 6.60624 12.1167 5.98307 12.1167 5.33329C12.1167 4.68351 11.8586 4.06034 11.3991 3.60088C10.9396 3.14142 10.3165 2.88329 9.66668 2.88329Z" fill="black"/>
</svg>
