<svg width="61" height="56" viewBox="0 0 61 56" fill="none" xmlns="http://www.w3.org/2000/svg">
<path d="M56.0146 29.102V1.77976C56.0146 0.805015 55.2243 0.0147705 54.2496 0.0147705H6.96176C5.98701 0.0147705 5.19677 0.805015 5.19677 1.77976V31.2801C4.34534 31.4042 3.51297 31.7347 2.77661 32.2814C0.4553 33.9274 -0.0937288 37.6111 1.8507 39.8828L9.80057 49.5205C14.7216 55.2799 19.9491 55.9855 27.7205 55.9855C34.3895 55.9855 37.371 56.015 43.1831 54.6906L48.8426 53.337C49.7603 54.6185 51.2171 55.4486 52.8549 55.4486H55.6429C58.413 55.4486 60.6666 53.0745 60.6666 50.1562V34.3785C60.6667 31.5921 58.6116 29.3032 56.0146 29.102ZM48.0813 32.7327L45.7296 31.5383C41.863 29.5866 37.3925 29.5143 33.4648 31.3404C32.3933 31.7619 30.0561 33.176 28.8437 33.1287H20.6834C17.9766 33.1287 15.7744 35.3308 15.7744 38.0377V39.3249C15.7592 39.3089 15.7433 39.2937 15.7283 39.2774L9.90094 32.9521C9.54829 32.5693 9.15211 32.249 8.72687 31.992V14.4811H23.1707V20.9511C23.1707 21.9258 23.961 22.7161 24.9357 22.7161H36.0729C37.0477 22.7161 37.8379 21.9258 37.8379 20.9511V14.4811H52.4847V29.1019C50.4225 29.2612 48.7029 30.7365 48.0813 32.7327ZM26.7006 14.4811H34.3078V19.1861H26.7006V14.4811ZM52.4846 10.9511H37.8379V3.54475H52.4847V10.9511H52.4846ZM34.3079 3.54475V10.9512H26.7007V3.54475H34.3079ZM23.1706 3.54475V10.9512H8.72675V3.54475H23.1706ZM42.3639 51.2569C36.9948 52.4866 33.7612 52.4368 27.7838 52.4368C20.4885 52.4368 16.9636 52.3189 12.5238 47.2741L4.57396 37.6365C3.19115 35.8358 5.69579 33.7102 7.30475 35.3436L13.1322 41.6691C14.6723 43.2942 16.6104 44.1886 18.9991 44.2412H35.1556C36.1303 44.2412 36.9206 43.4509 36.9206 42.4762C36.9206 41.5014 36.1303 40.7112 35.1556 40.7112H19.3042V38.0375C19.3042 37.2771 19.9228 36.6584 20.6833 36.6584H28.8436C30.682 36.7901 33.3355 35.255 34.953 34.5411C37.8946 33.1734 41.2429 33.2275 44.135 34.6873L47.8314 36.5648V49.949L42.3639 51.2569ZM57.1368 50.1561C57.1368 51.1279 56.4667 51.9185 55.643 51.9185H52.855C52.0314 51.9185 51.3614 51.1279 51.3614 50.1561V34.3785C51.3614 33.4067 52.0315 32.616 52.855 32.616H55.643C56.4667 32.616 57.1368 33.4066 57.1368 34.3785V50.1561Z" fill="#242424"/>
</svg>
